<?xml version="1.0" encoding="iso-8859-1"?>
<!-- Uploaded to: SVG Repo, www.svgrepo.com, Generator: SVG Repo Mixer Tools -->
<svg height="800px" width="800px" version="1.1" id="Layer_1" xmlns="http://www.w3.org/2000/svg" xmlns:xlink="http://www.w3.org/1999/xlink" 
	 viewBox="0 0 392.533 392.533" xml:space="preserve">
<path style="fill:#FFFFFF;" d="M220.416,160l48.937-138.214H130.493l-10.925,171.636h36.073c6.659,0.323,11.766,5.947,10.796,12.283
	L149.499,336.42l107.572-161.875h-26.44C221.58,175.321,217.701,167.111,220.416,160z"/>
<polygon style="fill:#56ACE0;" points="183.18,246.497 216.408,196.331 189.644,196.331 "/>
<path style="fill:#FFC10D;" d="M150.856,43.572l-0.711,11.055h37.883c6.012,0,10.925,4.848,10.925,10.925
	s-4.848,10.925-10.925,10.925H149.37c-0.259,0-0.388-0.065-0.646-0.065l-1.293,21.269h22.691c6.012,0,10.925,4.848,10.925,10.925
	c0,6.012-4.848,10.925-10.925,10.925h-24.113l-3.297,52.234h50.36l45.253-128.065C238.388,43.572,150.856,43.572,150.856,43.572z"/>
<path style="fill:#194F82;" d="M284.675,0H120.214c-5.689,0-10.537,4.461-10.925,10.214L97.006,203.636
	c-0.84,6.012,4.848,11.636,10.925,11.572h35.232L121.83,380.057c-1.293,10.408,11.895,17.907,19.846,7.434L286.42,169.632
	c5.042-7.176-0.129-16.679-9.051-16.937h-31.289l48.937-138.214C297.281,8.081,292.885,0.453,284.675,0z M220.416,160
	c-2.715,7.111,1.164,15.321,10.279,14.545h26.44L149.564,336.42l16.937-130.715c0.905-6.335-4.202-11.96-10.796-12.283h-36.073
	l10.925-171.636h138.796L220.416,160z"/>
</svg>